Oswald-100-cyrillic-Glyphs.ufo
<glyph name="quotedbl" format="1">
  <advance width="667"/>
  <unicode hex="0022"/>
  <outline>
    <contour>
      <point x="161" y="1495" type="line"/>
      <point x="171" y="1495" type="line"/>
      <point x="208" y="1711"/>
      <point x="206" y="1460"/>
      <point x="243" y="1679" type="curve"/>
      <point x="128" y="1679" type="line"/>
    </contour>
    <contour>
      <point x="492" y="1495" type="line"/>
      <point x="511" y="1495" type="line"/>
      <point x="548" y="1711"/>
      <point x="504" y="1460"/>
      <point x="540" y="1679" type="curve"/>
      <point x="422" y="1679" type="line"/>
    </contour>
  </outline>
</glyph>
<glyph name="one" format="1">
  <advance width="471"/>
  <unicode hex="0031"/>
  <outline>
    <contour>
      <point x="236" y="0" type="line"/>
      <point x="308" y="0" type="line"/>
      <point x="308" y="1687" type="line"/>
      <point x="273" y="1687" type="line"/>
      <point x="212" y="1595"/>
      <point x="82" y="1508"/>
      <point x="40" y="1504" type="curve"/>
      <point x="40" y="1411" type="line"/>
      <point x="104" y="1425"/>
      <point x="153" y="1480"/>
      <point x="236" y="1537" type="curve"/>
    </contour>
  </outline>
</glyph>
<glyph name="two" format="1">
  <advance width="936"/>
  <unicode hex="0032"/>
  <outline>
    <contour>
      <point x="91" y="0" type="line"/>
      <point x="804" y="0" type="line"/>
      <point x="804" y="56" type="line"/>
      <point x="162" y="56" type="line"/>
      <point x="646" y="811" type="line" smooth="yes"/>
      <point x="716" y="918"/>
      <point x="827" y="1094"/>
      <point x="833" y="1245" type="curve" smooth="yes"/>
      <point x="844" y="1524"/>
      <point x="737" y="1707"/>
      <point x="492" y="1707" type="curve" smooth="yes"/>
      <point x="226" y="1707"/>
      <point x="95" y="1572"/>
      <point x="95" y="1263" type="curve" smooth="yes"/>
      <point x="95" y="1238" type="line"/>
      <point x="156" y="1238" type="line"/>
      <point x="156" y="1495"/>
      <point x="220" y="1651"/>
      <point x="493" y="1651" type="curve" smooth="yes"/>
      <point x="690" y="1651"/>
      <point x="791" y="1492"/>
      <point x="770" y="1244" type="curve" smooth="yes"/>
      <point x="757" y="1088"/>
      <point x="675" y="962"/>
      <point x="596" y="840" type="curve" smooth="yes"/>
      <point x="91" y="52" type="line"/>
    </contour>
  </outline>
</glyph>
<glyph name="four" format="1">
  <advance width="936"/>
  <unicode hex="0034"/>
  <outline>
    <contour>
      <point x="594" y="0" type="line"/>
      <point x="658" y="0" type="line"/>
      <point x="658" y="539" type="line"/>
      <point x="830" y="539" type="line"/>
      <point x="830" y="597" type="line"/>
      <point x="658" y="597" type="line"/>
      <point x="658" y="1688" type="line"/>
      <point x="590" y="1688" type="line"/>
      <point x="68" y="599" type="line"/>
      <point x="68" y="539" type="line"/>
      <point x="594" y="539" type="line"/>
    </contour>
    <contour>
      <point x="594" y="597" type="line"/>
      <point x="139" y="597" type="line"/>
      <point x="594" y="1567" type="line"/>
    </contour>
  </outline>
</glyph>
<glyph name="five" format="1">
  <advance width="878"/>
  <unicode hex="0035"/>
  <outline>
    <contour>
      <point x="472" y="-24" type="curve" smooth="yes"/>
      <point x="701" y="-24"/>
      <point x="822" y="188"/>
      <point x="822" y="492" type="curve" smooth="yes"/>
      <point x="822" y="797"/>
      <point x="730" y="1027"/>
      <point x="501" y="1027" type="curve" smooth="yes"/>
      <point x="381" y="1027"/>
      <point x="258" y="973"/>
      <point x="196" y="895" type="curve"/>
      <point x="225" y="1658" type="line"/>
      <point x="702" y="1658" type="line"/>
      <point x="722" y="1687" type="line"/>
      <point x="146" y="1687" type="line"/>
      <point x="146" y="834" type="line"/>
      <point x="195" y="834" type="line"/>
      <point x="278" y="950"/>
      <point x="402" y="974"/>
      <point x="483" y="974" type="curve" smooth="yes"/>
      <point x="653" y="974"/>
      <point x="749" y="890"/>
      <point x="749" y="489" type="curve" smooth="yes"/>
      <point x="749" y="76"/>
      <point x="632" y="26"/>
      <point x="479" y="26" type="curve" smooth="yes"/>
      <point x="310" y="26"/>
      <point x="206" y="53"/>
      <point x="205" y="386" type="curve"/>
      <point x="135" y="371" type="line"/>
      <point x="135" y="97"/>
      <point x="246" y="-24"/>
    </contour>
  </outline>
</glyph>
<glyph name="seven" format="1">
  <advance width="936"/>
  <unicode hex="0037"/>
  <outline>
    <contour>
      <point x="366" y="0" type="line"/>
      <point x="430" y="0" type="line"/>
      <point x="787" y="1655" type="line"/>
      <point x="787" y="1688" type="line"/>
      <point x="143" y="1688" type="line"/>
      <point x="143" y="1632" type="line"/>
      <point x="718" y="1632" type="line"/>
    </contour>
  </outline>
</glyph>
<glyph name="greater" format="1">
  <advance width="669"/>
  <unicode hex="003E"/>
  <outline>
    <contour>
      <point x="97" y="111" type="line"/>
      <point x="621" y="481" type="line"/>
      <point x="621" y="671" type="line"/>
      <point x="415" y="813"/>
      <point x="97" y="1040"/>
      <point x="97" y="1040" type="curve"/>
      <point x="97" y="926" type="line"/>
      <point x="383" y="722"/>
      <point x="300" y="779"/>
      <point x="587" y="577" type="curve"/>
      <point x="97" y="226" type="line"/>
    </contour>
  </outline>
</glyph>
<glyph name="L" format="1">
  <advance width="744"/>
  <unicode hex="004C"/>
  <outline>
    <contour>
      <point x="192" y="0" type="line"/>
      <point x="758" y="0" type="line"/>
      <point x="758" y="56" type="line"/>
      <point x="225" y="56" type="line"/>
    </contour>
    <component base="uc_main_stem"/>
  </outline>
</glyph>
<glyph name="Y" format="1">
  <advance width="830"/>
  <unicode hex="0059"/>
  <outline>
    <contour>
      <point x="390" y="0" type="line"/>
      <point x="457" y="0" type="line"/>
      <point x="457" y="508" type="line"/>
      <point x="832" y="1688" type="line"/>
      <point x="760" y="1688" type="line"/>
      <point x="610" y="1164"/>
      <point x="574" y="1107"/>
      <point x="426" y="583" type="curve"/>
      <point x="426" y="584"/>
      <point x="173" y="1321"/>
      <point x="72" y="1688" type="curve"/>
      <point x="-2" y="1688" type="line"/>
      <point x="390" y="508" type="line"/>
    </contour>
  </outline>
</glyph>
<glyph name="o" format="1">
  <advance width="786"/>
  <unicode hex="006F"/>
  <outline>
    <contour>
      <point x="178" y="437" type="curve" smooth="yes"/>
      <point x="178" y="715" type="line" smooth="yes"/>
      <point x="178" y="981"/>
      <point x="202" y="1122"/>
      <point x="393" y="1122" type="curve" smooth="yes"/>
      <point x="584" y="1122"/>
      <point x="608" y="981"/>
      <point x="608" y="715" type="curve" smooth="yes"/>
      <point x="608" y="437" type="line" smooth="yes"/>
      <point x="608" y="171"/>
      <point x="584" y="30"/>
      <point x="393" y="30" type="curve" smooth="yes"/>
      <point x="202" y="30"/>
      <point x="178" y="171"/>
    </contour>
    <contour>
      <point x="114" y="437" type="line" smooth="yes"/>
      <point x="114" y="128"/>
      <point x="168" y="-20"/>
      <point x="393" y="-20" type="curve" smooth="yes"/>
      <point x="618" y="-20"/>
      <point x="672" y="128"/>
      <point x="672" y="437" type="curve" smooth="yes"/>
      <point x="672" y="715" type="line" smooth="yes"/>
      <point x="672" y="1024"/>
      <point x="618" y="1172"/>
      <point x="393" y="1172" type="curve" smooth="yes"/>
      <point x="168" y="1172"/>
      <point x="114" y="1021"/>
      <point x="114" y="715" type="curve" smooth="yes"/>
    </contour>
  </outline>
</glyph>
<glyph name="v" format="1">
  <advance width="686"/>
  <unicode hex="0076"/>
  <outline>
    <contour>
      <point x="319" y="0" type="line"/>
      <point x="381" y="0" type="line"/>
      <point x="655" y="1152" type="line"/>
      <point x="593" y="1152" type="line"/>
      <point x="349" y="100" type="line"/>
      <point x="97" y="1152" type="line"/>
      <point x="31" y="1152" type="line"/>
    </contour>
  </outline>
</glyph>
<glyph name="hbar" format="1">
  <advance width="882"/>
  <unicode hex="0127"/>
  <outline>
    <contour>
      <point x="177" y="0" type="line"/>
      <point x="250" y="0" type="line"/>
      <point x="250" y="987" type="line"/>
      <point x="326" y="1057"/>
      <point x="422" y="1091"/>
      <point x="496" y="1091" type="curve" smooth="yes"/>
      <point x="549" y="1091"/>
      <point x="649" y="1068"/>
      <point x="649" y="922" type="curve" smooth="yes"/>
      <point x="649" y="0" type="line"/>
      <point x="723" y="0" type="line"/>
      <point x="723" y="896" type="line" smooth="yes"/>
      <point x="723" y="1114"/>
      <point x="586" y="1179"/>
      <point x="487" y="1179" type="curve" smooth="yes"/>
      <point x="406" y="1179"/>
      <point x="313" y="1143"/>
      <point x="248" y="1032" type="curve"/>
      <point x="248" y="1379" type="line"/>
      <point x="369" y="1379" type="line"/>
      <point x="369" y="1437" type="line"/>
      <point x="248" y="1437" type="line"/>
      <point x="248" y="1688" type="line"/>
      <point x="177" y="1688" type="line"/>
      <point x="177" y="1437" type="line"/>
      <point x="44" y="1437" type="line"/>
      <point x="44" y="1379" type="line"/>
      <point x="177" y="1379" type="line"/>
    </contour>
  </outline>
</glyph>
<glyph name="circumflex" format="1">
  <advance width="637"/>
  <unicode hex="02C6"/>
  <outline>
    <contour>
      <point x="89" y="1414" type="line"/>
      <point x="134" y="1414" type="line"/>
      <point x="315" y="1754" type="line"/>
      <point x="496" y="1414" type="line"/>
      <point x="537" y="1414" type="line"/>
      <point x="406" y="1680" type="line"/>
      <point x="226" y="1680" type="line"/>
    </contour>
  </outline>
</glyph>
<glyph name="afii10053" format="1">
  <advance width="971"/>
  <unicode hex="0404"/>
  <outline>
    <contour>
      <point x="159" y="856" type="line"/>
      <point x="624" y="856" type="line"/>
      <point x="624" y="908" type="line"/>
      <point x="159" y="908" type="line"/>
    </contour>
    <component base="C"/>
  </outline>
</glyph>
<glyph name="afii10018" format="1">
  <advance width="1058"/>
  <unicode hex="0411"/>
  <outline>
    <contour>
      <point x="848" y="1633" type="line"/>
      <point x="848" y="1688" type="line"/>
      <point x="204" y="1688" type="line"/>
      <point x="204" y="1633" type="line"/>
    </contour>
    <component base="uc_main_stem" xOffset="7"/>
    <component base="cyrillic_uc_right_bowl" xOffset="7"/>
  </outline>
</glyph>
<glyph name="afii10021" format="1">
  <advance width="1112"/>
  <unicode hex="0414"/>
  <outline>
    <contour>
      <point x="16" y="-201" type="line"/>
      <point x="67" y="-201" type="line"/>
      <point x="77" y="0" type="line"/>
      <point x="987" y="0" type="line"/>
      <point x="998" y="-201" type="line"/>
      <point x="1050" y="-201" type="line"/>
      <point x="1050" y="57" type="line"/>
      <point x="16" y="57" type="line"/>
    </contour>
    <component base="afii10029" xOffset="-19"/>
  </outline>
</glyph>
<glyph name="afii10022" format="1">
  <advance width="763"/>
  <unicode hex="0415"/>
  <outline>
    <contour>
      <point x="194" y="0" type="line"/>
      <point x="699" y="0" type="line"/>
      <point x="699" y="56" type="line"/>
      <point x="194" y="56" type="line"/>
    </contour>
    <contour>
      <point x="196" y="844" type="line"/>
      <point x="565" y="844" type="line"/>
      <point x="565" y="899" type="line"/>
      <point x="196" y="899" type="line"/>
    </contour>
    <contour>
      <point x="195" y="1632" type="line"/>
      <point x="699" y="1632" type="line"/>
      <point x="699" y="1688" type="line"/>
      <point x="195" y="1688" type="line"/>
    </contour>
    <component base="uc_main_stem"/>
  </outline>
</glyph>
<glyph name="afii10024" format="1">
  <advance width="1570"/>
  <unicode hex="0416"/>
  <outline>
    <contour>
      <point x="776" y="715" type="line"/>
      <point x="776" y="819" type="line"/>
      <point x="306" y="1688" type="line"/>
      <point x="240" y="1688" type="line"/>
      <point x="620" y="978" type="line"/>
      <point x="201" y="0" type="line"/>
      <point x="270" y="0" type="line"/>
      <point x="658" y="924" type="line"/>
    </contour>
    <contour>
      <point x="776" y="715" type="line"/>
      <point x="894" y="924" type="line"/>
      <point x="1282" y="0" type="line"/>
      <point x="1351" y="0" type="line"/>
      <point x="932" y="978" type="line"/>
      <point x="1312" y="1688" type="line"/>
      <point x="1246" y="1688" type="line"/>
      <point x="776" y="819" type="line"/>
    </contour>
    <component base="uc_main_stem" xOffset="582"/>
  </outline>
</glyph>
<glyph name="afii10029" format="1">
  <advance width="1134"/>
  <unicode hex="041B"/>
  <outline>
    <contour>
      <point x="933" y="1688" type="line"/>
      <point x="299" y="1688" type="line"/>
      <point x="299" y="889" type="line" smooth="yes"/>
      <point x="299" y="108"/>
      <point x="250" y="53"/>
      <point x="112" y="53" type="curve"/>
      <point x="112" y="0" type="line"/>
      <point x="310" y="0"/>
      <point x="363" y="58"/>
      <point x="363" y="889" type="curve" smooth="yes"/>
      <point x="363" y="1633" type="line"/>
      <point x="933" y="1633" type="line"/>
    </contour>
    <component base="uc_main_stem" xOffset="739"/>
  </outline>
</glyph>
<glyph name="afii10033" format="1">
  <advance width="1093"/>
  <unicode hex="041F"/>
  <outline>
    <contour>
      <point x="196" y="1636" type="line"/>
      <point x="897" y="1636" type="line"/>
      <point x="897" y="1688" type="line"/>
      <point x="196" y="1688" type="line"/>
    </contour>
    <component base="uc_main_stem"/>
    <component base="uc_main_stem" xOffset="705"/>
  </outline>
</glyph>
<glyph name="afii10037" format="1">
  <advance width="953"/>
  <unicode hex="0423"/>
  <outline>
    <contour>
      <point x="517" y="534" type="line"/>
      <point x="869" y="1688" type="line"/>
      <point x="802" y="1688" type="line"/>
      <point x="488" y="646" type="line"/>
      <point x="140" y="1688" type="line"/>
      <point x="73" y="1688" type="line"/>
      <point x="457" y="559" type="line"/>
      <point x="296" y="0" type="line"/>
      <point x="361" y="0" type="line"/>
    </contour>
  </outline>
</glyph>
<glyph name="afii10043" format="1">
  <advance width="1697"/>
  <unicode hex="0429"/>
  <outline>
    <contour>
      <point x="1471" y="25" type="line"/>
      <point x="1471" y="-222" type="line"/>
      <point x="1513" y="-222" type="line"/>
      <point x="1535" y="-91" type="line"/>
      <point x="1535" y="25" type="line"/>
    </contour>
    <contour>
      <point x="196" y="0" type="line"/>
      <point x="1506" y="0" type="line"/>
      <point x="1506" y="52" type="line"/>
      <point x="196" y="52" type="line"/>
    </contour>
    <component base="uc_main_stem" xOffset="653"/>
    <component base="uc_main_stem" xOffset="1309"/>
    <component base="uc_main_stem"/>
  </outline>
</glyph>
<glyph name="afii10044" format="1">
  <advance width="1082"/>
  <unicode hex="042A"/>
  <outline>
    <contour>
      <point x="-34" y="1635" type="line"/>
      <point x="194" y="1635" type="line"/>
      <point x="194" y="1688" type="line"/>
      <point x="-34" y="1688" type="line"/>
    </contour>
    <component base="uc_main_stem"/>
    <component base="cyrillic_uc_right_bowl"/>
  </outline>
</glyph>
<glyph name="afii10048" format="1">
  <advance width="1326"/>
  <unicode hex="042E"/>
  <outline>
    <contour>
      <point x="194" y="804" type="line"/>
      <point x="430" y="804" type="line"/>
      <point x="430" y="860" type="line"/>
      <point x="194" y="860" type="line"/>
    </contour>
    <component base="uc_main_stem"/>
    <component base="O" xOffset="270"/>
  </outline>
</glyph>
<glyph name="afii10069" format="1">
  <advance width="864"/>
  <unicode hex="0434"/>
  <outline>
    <contour>
      <point x="12" y="-201" type="line"/>
      <point x="63" y="-201" type="line"/>
      <point x="73" y="0" type="line"/>
      <point x="739" y="0" type="line"/>
      <point x="750" y="-201" type="line"/>
      <point x="802" y="-201" type="line"/>
      <point x="802" y="48" type="line"/>
      <point x="12" y="48" type="line"/>
    </contour>
    <contour>
      <point x="76" y="0" type="curve"/>
      <point x="140" y="0" type="line"/>
      <point x="162" y="55"/>
      <point x="283" y="369"/>
      <point x="283" y="865" type="curve" smooth="yes"/>
      <point x="283" y="1152" type="line"/>
      <point x="219" y="1152" type="line"/>
      <point x="219" y="864" type="line" smooth="yes"/>
      <point x="219" y="381"/>
      <point x="96" y="60"/>
    </contour>
    <contour>
      <point x="681" y="1152" type="line"/>
      <point x="251" y="1152" type="line"/>
      <point x="251" y="1095" type="line"/>
      <point x="681" y="1095" type="line"/>
    </contour>
    <component base="lc_xheight_stem" xOffset="513"/>
  </outline>
</glyph>
<glyph name="afii10073" format="1">
  <advance width="720"/>
  <unicode hex="0437"/>
  <outline>
    <contour>
      <point x="554" y="622"/>
      <point x="632" y="717"/>
      <point x="637" y="854" type="curve" smooth="yes"/>
      <point x="643" y="1032"/>
      <point x="559" y="1172"/>
      <point x="368" y="1172" type="curve" smooth="yes"/>
      <point x="192" y="1172"/>
      <point x="88" y="1067"/>
      <point x="88" y="879" type="curve"/>
      <point x="151" y="879" type="line"/>
      <point x="151" y="1031"/>
      <point x="235" y="1122"/>
      <point x="369" y="1122" type="curve" smooth="yes"/>
      <point x="520" y="1122"/>
      <point x="583" y="991"/>
      <point x="573" y="851" type="curve" smooth="yes"/>
      <point x="564" y="722"/>
      <point x="509" y="625"/>
      <point x="317" y="625" type="curve"/>
      <point x="317" y="569" type="line"/>
      <point x="500" y="569"/>
      <point x="573" y="454"/>
      <point x="578" y="305" type="curve" smooth="yes"/>
      <point x="584" y="116"/>
      <point x="497" y="28"/>
      <point x="358" y="30" type="curve" smooth="yes"/>
      <point x="210" y="32"/>
      <point x="153" y="135"/>
      <point x="153" y="294" type="curve"/>
      <point x="88" y="294" type="line"/>
      <point x="88" y="98"/>
      <point x="186" y="-17"/>
      <point x="358" y="-20" type="curve" smooth="yes"/>
      <point x="537" y="-23"/>
      <point x="647" y="100"/>
      <point x="642" y="305" type="curve" smooth="yes"/>
      <point x="638" y="473"/>
      <point x="555" y="558"/>
      <point x="435" y="598" type="curve"/>
    </contour>
  </outline>
</glyph>
<glyph name="afii10077" format="1">
  <advance width="747"/>
  <unicode hex="043B"/>
  <outline>
    <contour>
      <point x="25" y="0" type="line"/>
      <point x="171" y="0" type="line"/>
      <point x="385" y="1062" type="line"/>
      <point x="579" y="0" type="line"/>
      <point x="722" y="0" type="line"/>
      <point x="472" y="1198" type="line"/>
      <point x="297" y="1198" type="line"/>
    </contour>
  </outline>
</glyph>
<glyph name="afii10081" format="1">
  <advance width="892"/>
  <unicode hex="043F"/>
  <outline>
    <contour>
      <point x="743" y="1097" type="line"/>
      <point x="743" y="1152" type="line"/>
      <point x="167" y="1152" type="line"/>
      <point x="167" y="1097" type="line"/>
    </contour>
    <component base="lc_xheight_stem" xOffset="576"/>
    <component base="lc_xheight_stem"/>
  </outline>
</glyph>
<glyph name="afii10085" format="1">
  <advance width="744"/>
  <unicode hex="0443"/>
  <outline>
    <contour>
      <point x="271" y="-279"/>
      <point x="364" y="-251"/>
      <point x="405" y="-78" type="curve" smooth="yes"/>
      <point x="696" y="1152" type="line"/>
      <point x="634" y="1152" type="line"/>
      <point x="390" y="100" type="line"/>
      <point x="138" y="1152" type="line"/>
      <point x="72" y="1152" type="line"/>
      <point x="338" y="84" type="line" smooth="yes"/>
      <point x="376" y="-70"/>
      <point x="365" y="-240"/>
      <point x="70" y="-242" type="curve"/>
      <point x="70" y="-298" type="line"/>
    </contour>
  </outline>
</glyph>
<glyph name="afii10088" format="1">
  <advance width="813"/>
  <unicode hex="0446"/>
  <outline>
    <contour>
      <point x="168" y="0" type="line"/>
      <point x="169" y="0" type="line"/>
      <point x="169" y="0"/>
      <point x="701" y="0"/>
      <point x="701" y="0" type="curve"/>
      <point x="701" y="-201" type="line"/>
      <point x="757" y="-201" type="line"/>
      <point x="757" y="44" type="line"/>
      <point x="168" y="44" type="line"/>
    </contour>
    <component base="lc_xheight_stem" xOffset="1"/>
    <component base="lc_xheight_stem" xOffset="488"/>
  </outline>
</glyph>
<glyph name="afii10091" format="1">
  <advance width="1251"/>
  <unicode hex="0449"/>
  <outline>
    <contour>
      <point x="170" y="0" type="line"/>
      <point x="1152" y="0" type="line"/>
      <point x="1152" y="-201" type="line"/>
      <point x="1211" y="-201" type="line"/>
      <point x="1211" y="44" type="line"/>
      <point x="170" y="44" type="line"/>
    </contour>
    <component base="lc_xheight_stem" xOffset="936"/>
    <component base="lc_xheight_stem" xOffset="469"/>
    <component base="lc_xheight_stem" xOffset="1"/>
  </outline>
</glyph>
<glyph name="afii10095" format="1">
  <advance width="769"/>
  <unicode hex="044D"/>
  <outline>
    <contour>
      <point x="275" y="558" type="line"/>
      <point x="635" y="558" type="line"/>
      <point x="635" y="609" type="line"/>
      <point x="275" y="609" type="line"/>
    </contour>
    <component base="c" xScale="-1" yScale="-1" xOffset="784" yOffset="1152"/>
  </outline>
</glyph>
<glyph name="afii10096" format="1">
  <advance width="1054"/>
  <unicode hex="044E"/>
  <outline>
    <contour>
      <point x="188" y="621" type="line"/>
      <point x="188" y="574" type="line"/>
      <point x="390" y="574" type="line"/>
      <point x="390" y="573" type="line"/>
      <point x="390" y="621" type="line"/>
    </contour>
    <component base="lc_xheight_stem" xOffset="17"/>
    <component base="o" xOffset="242"/>
  </outline>
</glyph>
<glyph name="afii10071" format="1">
  <advance width="829"/>
  <unicode hex="0451"/>
  <outline>
    <contour>
      <point x="110" y="552" type="line" smooth="yes"/>
      <point x="110" y="401"/>
      <point x="119" y="283"/>
      <point x="141" y="199" type="curve" smooth="yes"/>
      <point x="163" y="116"/>
      <point x="197" y="57"/>
      <point x="244" y="23" type="curve"/>
      <point x="291" y="-9"/>
      <point x="357" y="-27"/>
      <point x="442" y="-26" type="curve" smooth="yes"/>
      <point x="575" y="-24"/>
      <point x="650" y="38"/>
      <point x="691" y="140" type="curve" smooth="yes"/>
      <point x="719" y="211"/>
      <point x="731" y="276"/>
      <point x="739" y="367" type="curve"/>
      <point x="599" y="367" type="line"/>
      <point x="598" y="262"/>
      <point x="583" y="186"/>
      <point x="552" y="141" type="curve" smooth="yes"/>
      <point x="522" y="96"/>
      <point x="485" y="74"/>
      <point x="440" y="74" type="curve" smooth="yes"/>
      <point x="379" y="74"/>
      <point x="342" y="87"/>
      <point x="309" y="138" type="curve" smooth="yes"/>
      <point x="276" y="189"/>
      <point x="261" y="288"/>
      <point x="261" y="445" type="curve" smooth="yes"/>
      <point x="261" y="628" type="line"/>
      <point x="741" y="628" type="line"/>
      <point x="742" y="660"/>
      <point x="743" y="701"/>
      <point x="743" y="751" type="curve" smooth="yes"/>
      <point x="743" y="915"/>
      <point x="719" y="1035"/>
      <point x="672" y="1111" type="curve" smooth="yes"/>
      <point x="625" y="1187"/>
      <point x="548" y="1225"/>
      <point x="441" y="1225" type="curve" smooth="yes"/>
      <point x="358" y="1225"/>
      <point x="302" y="1213"/>
      <point x="243" y="1169" type="curve" smooth="yes"/>
      <point x="214" y="1148"/>
      <point x="191" y="1119"/>
      <point x="172" y="1082" type="curve" smooth="yes"/>
      <point x="136" y="1009"/>
      <point x="110" y="886"/>
      <point x="110" y="719" type="curve" smooth="yes"/>
    </contour>
    <contour>
      <point x="262" y="702" type="line"/>
      <point x="262" y="771"/>
      <point x="262" y="821"/>
      <point x="263" y="853" type="curve" smooth="yes"/>
      <point x="264" y="886"/>
      <point x="268" y="923"/>
      <point x="274" y="966" type="curve" smooth="yes"/>
      <point x="280" y="1009"/>
      <point x="289" y="1039"/>
      <point x="302" y="1057" type="curve" smooth="yes"/>
      <point x="329" y="1093"/>
      <point x="375" y="1124"/>
      <point x="448" y="1124" type="curve" smooth="yes"/>
      <point x="615" y="1124"/>
      <point x="589" y="885"/>
      <point x="594" y="702" type="curve"/>
    </contour>
    <contour>
      <point x="324" y="1567" type="line"/>
      <point x="140" y="1567" type="line"/>
      <point x="140" y="1388" type="line"/>
      <point x="324" y="1388" type="line"/>
    </contour>
    <contour>
      <point x="708" y="1567" type="line"/>
      <point x="524" y="1567" type="line"/>
      <point x="524" y="1388" type="line"/>
      <point x="708" y="1388" type="line"/>
    </contour>
  </outline>
</glyph>
<glyph name="afii10101" format="1">
  <advance width="769"/>
  <unicode hex="0454"/>
  <outline>
    <contour>
      <point x="509" y="626" type="line"/>
      <point x="149" y="626" type="line"/>
      <point x="149" y="575" type="line"/>
      <point x="509" y="575" type="line"/>
    </contour>
    <component base="c"/>
  </outline>
</glyph>
<glyph name="quotesinglbase" format="1">
  <advance width="322"/>
  <unicode hex="201A"/>
  <outline>
    <contour>
      <point x="151" y="-209" type="line"/>
      <point x="223" y="-148"/>
      <point x="249" y="-89"/>
      <point x="249" y="30" type="curve" smooth="yes"/>
      <point x="249" y="125" type="line"/>
      <point x="134" y="125" type="line"/>
      <point x="134" y="0" type="line"/>
      <point x="208" y="0" type="line"/>
      <point x="208" y="-31"/>
      <point x="203" y="-129"/>
      <point x="136" y="-192" type="curve"/>
    </contour>
  </outline>
</glyph>
<glyph name="lc_ascender_stem" format="1">
  <advance width="500"/>
  <outline>
    <contour>
      <point x="202" y="1688" type="line"/>
      <point x="138" y="1688" type="line"/>
      <point x="138" y="0" type="line"/>
      <point x="202" y="0" type="line"/>
    </contour>
  </outline>
</glyph>
